# xmcd
#
# Track frame offsets:
#	150
#	23845
#	47895
#	69930
#	97115
#	104612
#	111712
#	131415
#	155297
#
# Disc length: 2286 seconds
#
# Revision: 3
# Processed by: cddbd v1.5.2PL0 Copyright (c) Steve Scherf et al.
# Submitted via: Jack! The Knife
#
DISCID=7b08ec09
DTITLE=Triumph - Thunder Seven
DYEAR=1984
DGENRE=Rock
TTITLE0=Spellbound
TTITLE1=Rock Out, Roll On
TTITLE2=Cool Down
TTITLE3=Time Goes By
TTITLE4=Midsummer's Daydream
TTITLE5=Time Canon
TTITLE6=Killing Time
TTITLE7=Stranger in a Strange Land
TTITLE8=Little Boy Blues
EXTD=
EXTT0=
EXTT1=
EXTT2=
EXTT3=
EXTT4=
EXTT5=
EXTT6=
EXTT7=
EXTT8=
PLAYORDER=
